<svg width="541" height="136" viewBox="0 0 541 136" fill="none" xmlns="http://www.w3.org/2000/svg">
<mask id="mask0_322_240" style="mask-type:luminance" maskUnits="userSpaceOnUse" x="0" y="0" width="399" height="136">
<path d="M398.667 0H0V136H398.667V0Z" fill="white"/>
</mask>
<g mask="url(#mask0_322_240)">
<path d="M38.8595 101.701C32.5261 101.701 26.7188 100.233 21.4428 97.2848C16.1615 94.342 11.9688 90.2327 8.85946 84.9514C5.7605 79.6754 4.21362 73.7431 4.21362 67.1598C4.21362 60.566 5.7605 54.6493 8.85946 49.4097C11.9688 44.1597 16.1615 40.066 21.4428 37.1181C26.7188 34.1754 32.5261 32.7014 38.8595 32.7014C45.1928 32.7014 50.9949 34.1754 56.2761 37.1181C61.5522 40.066 65.7136 44.1597 68.7553 49.4097C71.797 54.6493 73.3178 60.566 73.3178 67.1598C73.3178 73.7431 71.7813 79.6754 68.7136 84.9514C65.6407 90.2327 61.4845 94.342 56.2345 97.2848C50.9845 100.233 45.1928 101.701 38.8595 101.701ZM38.8595 86.7431C44.2345 86.7431 48.5313 84.9514 51.7553 81.3681C54.9897 77.7848 56.6095 73.0504 56.6095 67.1598C56.6095 61.2014 54.9897 56.4514 51.7553 52.9097C48.5313 49.3577 44.2345 47.5764 38.8595 47.5764C33.4272 47.5764 29.0938 49.342 25.8595 52.8681C22.6199 56.3837 21.0053 61.1493 21.0053 67.1598C21.0053 73.1077 22.6199 77.8577 25.8595 81.4098C29.0938 84.967 33.4272 86.7431 38.8595 86.7431Z" fill="#1F1C1C"/>
<path d="M106.82 101.806C101.57 101.806 96.8457 100.691 92.653 98.4514C88.4707 96.2014 85.179 93.0035 82.778 88.8473C80.3717 84.6806 79.1738 79.8212 79.1738 74.2639C79.1738 68.7535 80.3874 63.9045 82.8197 59.7222C85.2467 55.5295 88.5749 52.316 92.7988 50.0764C97.0176 47.8264 101.757 46.7014 107.007 46.7014C112.257 46.7014 116.992 47.8264 121.215 50.0764C125.434 52.316 128.762 55.5295 131.195 59.7222C133.622 63.9045 134.84 68.7535 134.84 74.2639C134.84 79.7639 133.601 84.6129 131.132 88.8056C128.674 92.9879 125.32 96.2014 121.07 98.4514C116.82 100.691 112.07 101.806 106.82 101.806ZM106.82 87.5973C109.955 87.5973 112.622 86.4462 114.82 84.1389C117.028 81.8368 118.132 78.5452 118.132 74.2639C118.132 69.9723 117.059 66.6754 114.924 64.3681C112.783 62.066 110.143 60.9097 107.007 60.9097C103.809 60.9097 101.158 62.0504 99.0488 64.3264C96.9342 66.592 95.8822 69.9045 95.8822 74.2639C95.8822 78.5452 96.9134 81.8368 98.9863 84.1389C101.07 86.4462 103.679 87.5973 106.82 87.5973Z" fill="#1F1C1C"/>
<path d="M176.208 46.9097C182.469 46.9097 187.479 48.9461 191.229 53.0138C194.979 57.0711 196.854 62.6493 196.854 69.743V101.035H180.521V71.9513C180.521 68.368 179.588 65.5868 177.729 63.5972C175.88 61.6128 173.385 60.618 170.25 60.618C167.125 60.618 164.63 61.6128 162.771 63.5972C160.906 65.5868 159.979 68.368 159.979 71.9513V101.035H143.583V47.4722H159.979V54.5763C161.646 52.217 163.885 50.3472 166.708 48.9722C169.526 47.5972 172.693 46.9097 176.208 46.9097Z" fill="#1F1C1C"/>
<path d="M241.002 101.035L224.669 78.5764V101.035H208.273V30.0139H224.669V69.2639L240.898 47.4722H261.148L238.877 74.3473L261.335 101.035H241.002Z" fill="#1F1C1C"/>
<path d="M291.963 101.806C286.713 101.806 281.989 100.691 277.796 98.4514C273.614 96.2014 270.322 93.0035 267.921 88.8473C265.515 84.6806 264.317 79.8212 264.317 74.2639C264.317 68.7535 265.531 63.9045 267.963 59.7222C270.39 55.5295 273.718 52.316 277.942 50.0764C282.161 47.8264 286.9 46.7014 292.15 46.7014C297.4 46.7014 302.135 47.8264 306.359 50.0764C310.577 52.316 313.906 55.5295 316.338 59.7222C318.765 63.9045 319.984 68.7535 319.984 74.2639C319.984 79.7639 318.744 84.6129 316.275 88.8056C313.817 92.9879 310.463 96.2014 306.213 98.4514C301.963 100.691 297.213 101.806 291.963 101.806ZM291.963 87.5973C295.098 87.5973 297.765 86.4462 299.963 84.1389C302.171 81.8368 303.275 78.5452 303.275 74.2639C303.275 69.9723 302.202 66.6754 300.067 64.3681C297.926 62.066 295.286 60.9097 292.15 60.9097C288.952 60.9097 286.301 62.0504 284.192 64.3264C282.077 66.592 281.025 69.9045 281.025 74.2639C281.025 78.5452 282.057 81.8368 284.13 84.1389C286.213 86.4462 288.822 87.5973 291.963 87.5973Z" fill="#1F1C1C"/>
<path d="M360.58 101.701C354.247 101.701 348.44 100.233 343.164 97.2848C337.882 94.342 333.69 90.2327 330.58 84.9514C327.481 79.6754 325.935 73.7431 325.935 67.1598C325.935 60.566 327.481 54.6493 330.58 49.4097C333.69 44.1597 337.882 40.066 343.164 37.1181C348.44 34.1754 354.247 32.7014 360.58 32.7014C366.914 32.7014 372.716 34.1754 377.997 37.1181C383.273 40.066 387.435 44.1597 390.476 49.4097C393.518 54.6493 395.039 60.566 395.039 67.1598C395.039 73.7431 393.502 79.6754 390.435 84.9514C387.362 90.2327 383.205 94.342 377.955 97.2848C372.705 100.233 366.914 101.701 360.58 101.701ZM360.58 86.7431C365.955 86.7431 370.252 84.9514 373.476 81.3681C376.711 77.7848 378.33 73.0504 378.33 67.1598C378.33 61.2014 376.711 56.4514 373.476 52.9097C370.252 49.3577 365.955 47.5764 360.58 47.5764C355.148 47.5764 350.815 49.342 347.58 52.8681C344.341 56.3837 342.726 61.1493 342.726 67.1598C342.726 73.1077 344.341 77.8577 347.58 81.4098C350.815 84.967 355.148 86.7431 360.58 86.7431Z" fill="#1F1C1C"/>
</g>
<mask id="mask1_322_240" style="mask-type:luminance" maskUnits="userSpaceOnUse" x="425" y="10" width="116" height="116">
<path d="M425.589 10.9688H540.12V125.5H425.589V10.9688Z" fill="white"/>
</mask>
<g mask="url(#mask1_322_240)">
<mask id="mask2_322_240" style="mask-type:luminance" maskUnits="userSpaceOnUse" x="425" y="10" width="116" height="116">
<path d="M453.505 10.9688H512.208C527.625 10.9688 540.12 23.4688 540.12 38.8854V97.5885C540.12 113.005 527.625 125.5 512.208 125.5H453.505C438.089 125.5 425.589 113.005 425.589 97.5885V38.8854C425.589 23.4688 438.089 10.9688 453.505 10.9688Z" fill="white"/>
</mask>
<g mask="url(#mask2_322_240)">
<mask id="mask3_322_240" style="mask-type:luminance" maskUnits="userSpaceOnUse" x="425" y="10" width="117" height="117">
<path d="M541.333 10.6667H425.333V126.667H541.333V10.6667Z" fill="white"/>
</mask>
<g mask="url(#mask3_322_240)">
<mask id="mask4_322_240" style="mask-type:luminance" maskUnits="userSpaceOnUse" x="425" y="10" width="116" height="116">
<path d="M425.589 10.9688H540.12V125.5H425.589V10.9688Z" fill="white"/>
</mask>
<g mask="url(#mask4_322_240)">
<mask id="mask5_322_240" style="mask-type:luminance" maskUnits="userSpaceOnUse" x="425" y="10" width="116" height="116">
<path d="M453.505 10.9688H512.208C527.625 10.9688 540.12 23.4688 540.12 38.8854V97.5885C540.12 113.005 527.625 125.5 512.208 125.5H453.505C438.089 125.5 425.589 113.005 425.589 97.5885V38.8854C425.589 23.4688 438.089 10.9688 453.505 10.9688Z" fill="white"/>
</mask>
<g mask="url(#mask5_322_240)">
<path d="M425.589 10.9688V125.5H540.12V10.9688H425.589Z" fill="url(#paint0_radial_322_240)"/>
</g>
</g>
</g>
</g>
</g>
<path d="M461.847 41.1997V72.4705C461.847 76.7101 462.681 79.7518 464.347 81.5955C466.024 83.4289 468.889 84.3455 472.931 84.3455C476.29 84.3455 479.003 83.5018 481.076 81.8039C483.144 80.0955 484.181 77.0539 484.181 72.6789V41.1997H494.722V72.9705C494.722 79.0122 492.686 83.783 488.618 87.283C484.545 90.7726 479.316 92.5122 472.931 92.5122C465.998 92.5122 460.608 90.8612 456.764 87.5539C452.931 84.2518 451.014 79.5018 451.014 73.3039V41.1997H461.847Z" fill="white"/>
<path d="M515.299 40.929V91.5331H504.487V40.929H515.299Z" fill="white"/>
<defs>
<radialGradient id="paint0_radial_322_240" cx="0" cy="0" r="1" gradientUnits="userSpaceOnUse" gradientTransform="translate(425.588 10.9697) scale(161.974)">
<stop/>
<stop offset="0.25" stop-color="#000101"/>
<stop offset="0.253906" stop-color="#010403"/>
<stop offset="0.257812" stop-color="#020704"/>
<stop offset="0.261719" stop-color="#030A06"/>
<stop offset="0.265625" stop-color="#040D08"/>
<stop offset="0.269531" stop-color="#050F0A"/>
<stop offset="0.273438" stop-color="#06120B"/>
<stop offset="0.277344" stop-color="#07150D"/>
<stop offset="0.28125" stop-color="#08180F"/>
<stop offset="0.285156" stop-color="#091B11"/>
<stop offset="0.289062" stop-color="#0A1D13"/>
<stop offset="0.292969" stop-color="#0B2014"/>
<stop offset="0.296875" stop-color="#0C2316"/>
<stop offset="0.300781" stop-color="#0D2618"/>
<stop offset="0.304688" stop-color="#0E291A"/>
<stop offset="0.308594" stop-color="#0F2B1B"/>
<stop offset="0.3125" stop-color="#0F2E1D"/>
<stop offset="0.316406" stop-color="#10311F"/>
<stop offset="0.320312" stop-color="#113421"/>
<stop offset="0.324219" stop-color="#123722"/>
<stop offset="0.328125" stop-color="#133924"/>
<stop offset="0.332031" stop-color="#143C26"/>
<stop offset="0.335938" stop-color="#153F28"/>
<stop offset="0.339844" stop-color="#164229"/>
<stop offset="0.34375" stop-color="#17452B"/>
<stop offset="0.347656" stop-color="#18472D"/>
<stop offset="0.351562" stop-color="#194A2F"/>
<stop offset="0.355469" stop-color="#1A4D31"/>
<stop offset="0.359375" stop-color="#1B5032"/>
<stop offset="0.363281" stop-color="#1C5334"/>
<stop offset="0.367188" stop-color="#1D5536"/>
<stop offset="0.371094" stop-color="#1E5838"/>
<stop offset="0.375" stop-color="#1E5B39"/>
<stop offset="0.378906" stop-color="#1F5E3B"/>
<stop offset="0.382812" stop-color="#20603D"/>
<stop offset="0.386719" stop-color="#21633F"/>
<stop offset="0.390625" stop-color="#226640"/>
<stop offset="0.394531" stop-color="#236942"/>
<stop offset="0.398438" stop-color="#246C44"/>
<stop offset="0.402344" stop-color="#256E46"/>
<stop offset="0.40625" stop-color="#267148"/>
<stop offset="0.410156" stop-color="#277449"/>
<stop offset="0.414062" stop-color="#28774B"/>
<stop offset="0.417969" stop-color="#297A4D"/>
<stop offset="0.421875" stop-color="#2A7C4F"/>
<stop offset="0.425781" stop-color="#2B7F50"/>
<stop offset="0.429688" stop-color="#2C8252"/>
<stop offset="0.433594" stop-color="#2D8554"/>
<stop offset="0.4375" stop-color="#2D8856"/>
<stop offset="0.441406" stop-color="#2E8A57"/>
<stop offset="0.445312" stop-color="#2F8D59"/>
<stop offset="0.449219" stop-color="#30905B"/>
<stop offset="0.453125" stop-color="#31935D"/>
<stop offset="0.457031" stop-color="#32965E"/>
<stop offset="0.460938" stop-color="#339860"/>
<stop offset="0.464844" stop-color="#349B62"/>
<stop offset="0.46875" stop-color="#359E64"/>
<stop offset="0.472656" stop-color="#36A166"/>
<stop offset="0.476562" stop-color="#37A467"/>
<stop offset="0.480469" stop-color="#38A669"/>
<stop offset="0.484375" stop-color="#39A96B"/>
<stop offset="0.488281" stop-color="#3AAC6D"/>
<stop offset="0.492188" stop-color="#3BAF6E"/>
<stop offset="0.496094" stop-color="#3CB270"/>
<stop offset="0.5" stop-color="#3CB270"/>
<stop offset="0.503906" stop-color="#3BAF6E"/>
<stop offset="0.507812" stop-color="#3AAC6D"/>
<stop offset="0.511719" stop-color="#39A96B"/>
<stop offset="0.515625" stop-color="#38A669"/>
<stop offset="0.519531" stop-color="#37A467"/>
<stop offset="0.523438" stop-color="#36A166"/>
<stop offset="0.527344" stop-color="#359E64"/>
<stop offset="0.53125" stop-color="#349B62"/>
<stop offset="0.535156" stop-color="#339860"/>
<stop offset="0.539062" stop-color="#32965E"/>
<stop offset="0.542969" stop-color="#31935D"/>
<stop offset="0.546875" stop-color="#30905B"/>
<stop offset="0.550781" stop-color="#2F8D59"/>
<stop offset="0.554688" stop-color="#2E8A57"/>
<stop offset="0.558594" stop-color="#2D8856"/>
<stop offset="0.5625" stop-color="#2D8554"/>
<stop offset="0.566406" stop-color="#2C8252"/>
<stop offset="0.570312" stop-color="#2B7F50"/>
<stop offset="0.574219" stop-color="#2A7C4F"/>
<stop offset="0.578125" stop-color="#297A4D"/>
<stop offset="0.582031" stop-color="#28774B"/>
<stop offset="0.585938" stop-color="#277449"/>
<stop offset="0.589844" stop-color="#267148"/>
<stop offset="0.59375" stop-color="#256E46"/>
<stop offset="0.597656" stop-color="#246C44"/>
<stop offset="0.601562" stop-color="#236942"/>
<stop offset="0.605469" stop-color="#226640"/>
<stop offset="0.609375" stop-color="#21633F"/>
<stop offset="0.613281" stop-color="#20603D"/>
<stop offset="0.617188" stop-color="#1F5E3B"/>
<stop offset="0.621094" stop-color="#1E5B39"/>
<stop offset="0.625" stop-color="#1E5838"/>
<stop offset="0.628906" stop-color="#1D5536"/>
<stop offset="0.632812" stop-color="#1C5334"/>
<stop offset="0.636719" stop-color="#1B5032"/>
<stop offset="0.640625" stop-color="#1A4D31"/>
<stop offset="0.644531" stop-color="#194A2F"/>
<stop offset="0.648438" stop-color="#18472D"/>
<stop offset="0.652344" stop-color="#17452B"/>
<stop offset="0.65625" stop-color="#164229"/>
<stop offset="0.660156" stop-color="#153F28"/>
<stop offset="0.664062" stop-color="#143C26"/>
<stop offset="0.667969" stop-color="#133924"/>
<stop offset="0.671875" stop-color="#123722"/>
<stop offset="0.675781" stop-color="#113421"/>
<stop offset="0.679688" stop-color="#10311F"/>
<stop offset="0.683594" stop-color="#0F2E1D"/>
<stop offset="0.6875" stop-color="#0F2B1B"/>
<stop offset="0.691406" stop-color="#0E291A"/>
<stop offset="0.695312" stop-color="#0D2618"/>
<stop offset="0.699219" stop-color="#0C2316"/>
<stop offset="0.703125" stop-color="#0B2014"/>
<stop offset="0.707031" stop-color="#0A1D13"/>
<stop offset="0.710938" stop-color="#091B11"/>
<stop offset="0.714844" stop-color="#08180F"/>
<stop offset="0.71875" stop-color="#07150D"/>
<stop offset="0.722656" stop-color="#06120B"/>
<stop offset="0.726562" stop-color="#050F0A"/>
<stop offset="0.730469" stop-color="#040D08"/>
<stop offset="0.734375" stop-color="#030A06"/>
<stop offset="0.738281" stop-color="#020704"/>
<stop offset="0.742188" stop-color="#010403"/>
<stop offset="0.746094" stop-color="#000101"/>
<stop offset="0.75"/>
<stop offset="1"/>
</radialGradient>
</defs>
</svg>
